<?xml version="1.0" encoding="UTF-8"?>
<svg id="Calque_1" data-name="Calque 1" xmlns="http://www.w3.org/2000/svg" viewBox="0 0 100 86">
  <path d="M96.74,43.9c-12.21-17.74-30.75-28.1-46.74-28.1S15.47,26.16,3.26,43.9c-.39.57-.76,1.33-.76,2.1s.37,1.52.76,2.1c12.21,17.74,30.76,28.1,46.74,28.1s34.53-10.36,46.74-28.1c.4-.57.76-1.33.76-2.1s-.37-1.52-.76-2.1ZM50,67.81c-12.05,0-21.81-9.77-21.81-21.81s9.77-21.81,21.81-21.81,21.81,9.77,21.81,21.81-9.77,21.81-21.81,21.81Z"/>
  <path d="M58.28,43.67c-3.29,0-5.96-2.67-5.96-5.96,0-2.31,1.32-4.31,3.24-5.3-1.72-.71-3.59-1.1-5.56-1.1-8.11,0-14.68,6.57-14.68,14.68s6.57,14.68,14.68,14.68,14.68-6.57,14.68-14.68c0-1.97-.39-3.85-1.1-5.57-.99,1.92-2.99,3.24-5.3,3.24h0Z"/>
</svg>